<svg id="SvgjsSvg1167" width="100%" height="100%" xmlns="http://www.w3.org/2000/svg" version="1.1" xlink="http://www.w3.org/1999/xlink" xmlns:svgjs="http://svgjs.com/svgjs" preserveAspectRatio="xMidYMid meet" viewBox="0 0 300 52.19914627075195" overflow="visible"><defs id="SvgjsDefs1168"><linearGradient id="SvgjsLinearGradientHyJYtMZ5_E" gradientUnits="userSpaceOnUse" x1="-3.5527136788005e-15" y1="32.00000000000001" x2="32" y2="-3.5527136788005e-15"><stop id="SvgjsStop1171" stop-color="#e93ec4" offset="0.05"></stop><stop id="SvgjsStop1172" stop-color="#97117a" offset="0.95"></stop></linearGradient></defs><g id="SvgjsG1169" transform="scale(0.6253491532772465)" opacity="1"><g id="SvgjsG1173" class="MW54sBzoO" transform="translate(0, 0) scale(2.6085000000000003)" light-content="false" non-strokable="false" fill="url(#SvgjsLinearGradientHyJYtMZ5_E)"><path d="M0 16.024L15.976 32 32 15.976 16.024 0 0 16.024zm15.989 7.323l-7.336-7.336 14.694-.022-7.358 7.358z"></path></g><g id="SvgjsG1174" class="text" transform="translate(298.68200671386717, 58.86099908447266) scale(1)" light-content="false" fill="#0a0a0a"><path d="M-138.54 -20.19C-138.51 -22.12 -138.69 -24.03 -139.1 -25.93C-139.51 -27.82 -140.11 -29.62 -140.9 -31.32C-141.69 -33.02 -142.68 -34.58 -143.86 -36.02C-145.04 -37.46 -146.39 -38.7 -147.89 -39.74C-149.39 -40.79 -151.06 -41.61 -152.89 -42.2C-154.71 -42.8 -156.67 -43.1 -158.76 -43.1C-161.85 -43.1 -164.64 -42.54 -167.15 -41.44C-169.66 -40.34 -171.81 -38.81 -173.6 -36.87C-175.39 -34.93 -176.77 -32.64 -177.74 -30C-178.72 -27.36 -179.21 -24.51 -179.21 -21.45L-179.21 0L-167.58 0L-167.58 -10.25L-154.95 -10.25L-154.95 -15.09L-167.58 -15.09L-167.58 -23.26C-167.58 -24.28 -167.54 -25.36 -167.48 -26.5C-167.41 -27.64 -167.26 -28.77 -167.04 -29.9C-166.81 -31.02 -166.5 -32.09 -166.1 -33.11C-165.7 -34.12 -165.16 -35.01 -164.49 -35.79C-163.81 -36.56 -162.99 -37.17 -162.03 -37.63C-161.06 -38.09 -159.9 -38.32 -158.55 -38.32C-157.03 -38.32 -155.76 -38.01 -154.73 -37.38C-153.71 -36.76 -152.87 -35.93 -152.21 -34.89C-151.56 -33.86 -151.06 -32.68 -150.73 -31.36C-150.4 -30.04 -150.16 -28.69 -150.01 -27.3C-149.87 -25.92 -149.79 -24.56 -149.78 -23.22C-149.77 -21.88 -149.77 -20.68 -149.77 -19.63C-149.77 -18.28 -149.82 -16.86 -149.93 -15.37C-150.03 -13.87 -150.2 -12.35 -150.41 -10.81C-150.63 -9.27 -150.89 -7.71 -151.22 -6.15C-151.54 -4.59 -151.92 -3.07 -152.37 -1.58C-152.82 -0.1 -153.33 1.32 -153.88 2.68C-154.44 4.04 -155.06 5.29 -155.74 6.45L-151.38 8.96C-150.17 7.91 -149.01 6.69 -147.92 5.32C-146.83 3.94 -145.81 2.47 -144.86 0.89C-143.91 -0.68 -143.06 -2.32 -142.29 -4.04C-141.53 -5.76 -140.88 -7.5 -140.33 -9.26C-139.79 -11.02 -139.36 -12.77 -139.06 -14.53C-138.75 -16.29 -138.58 -17.99 -138.54 -19.63Z M-119.36 0L-119.36 -15.76L-115.81 -15.76C-115.32 -13.18 -114.62 -10.91 -113.72 -8.95C-112.81 -6.99 -111.9 -5.34 -111.01 -4.01C-109.95 -2.45 -108.84 -1.11 -107.67 0L-93.16 0C-94.92 -1.19 -96.7 -2.61 -98.5 -4.25C-99.26 -4.95 -100.06 -5.73 -100.9 -6.58C-101.74 -7.43 -102.58 -8.35 -103.43 -9.36C-104.28 -10.37 -105.12 -11.45 -105.95 -12.6C-106.78 -13.75 -107.58 -14.97 -108.34 -16.26C-106.64 -16.51 -105 -17.04 -103.42 -17.83C-101.84 -18.62 -100.43 -19.61 -99.21 -20.82C-97.99 -22.02 -97.02 -23.38 -96.28 -24.92C-95.55 -26.45 -95.19 -28.09 -95.19 -29.82C-95.19 -32.05 -95.6 -33.95 -96.43 -35.51C-97.26 -37.07 -98.37 -38.34 -99.77 -39.33C-101.17 -40.32 -102.77 -41.04 -104.59 -41.5C-106.41 -41.96 -108.29 -42.19 -110.24 -42.19L-130.99 -42.19L-130.99 0ZM-106.99 -29.82C-106.99 -28.5 -107.15 -27.23 -107.46 -26.02C-107.77 -24.8 -108.26 -23.74 -108.93 -22.81C-109.59 -21.88 -110.44 -21.14 -111.49 -20.58C-112.53 -20.02 -113.79 -19.75 -115.25 -19.75L-119.36 -19.75L-119.36 -38.06L-115.25 -38.06C-112.5 -38.06 -110.43 -37.39 -109.06 -36.06C-107.68 -34.74 -106.99 -32.66 -106.99 -29.82Z M-68.99 0L-68.99 -36.8L-57.51 -36.8L-57.51 -42.19L-92.11 -42.19L-92.11 -36.8L-80.62 -36.8L-80.62 0Z M-39.93 0L-39.93 -42.19L-51.56 -42.19L-51.56 0Z M4.19 -12.89C4.19 -14.39 3.94 -15.73 3.43 -16.89C2.92 -18.05 2.24 -19.08 1.38 -19.97C0.52 -20.85 -0.48 -21.62 -1.61 -22.27C-2.74 -22.91 -3.94 -23.48 -5.19 -23.98C-6.44 -24.48 -7.71 -24.91 -8.99 -25.28C-10.28 -25.65 -11.51 -26.01 -12.69 -26.34C-13.29 -26.51 -13.96 -26.67 -14.69 -26.82C-15.42 -26.97 -16.17 -27.14 -16.92 -27.33C-17.67 -27.53 -18.4 -27.76 -19.1 -28.02C-19.8 -28.29 -20.43 -28.62 -20.99 -29.03C-21.55 -29.44 -21.99 -29.94 -22.32 -30.53C-22.66 -31.11 -22.82 -31.83 -22.82 -32.67C-22.82 -33.72 -22.6 -34.6 -22.15 -35.32C-21.7 -36.03 -21.07 -36.6 -20.26 -37.02C-19.45 -37.44 -18.48 -37.74 -17.34 -37.92C-16.21 -38.11 -14.97 -38.2 -13.62 -38.2C-12.59 -38.2 -11.51 -37.98 -10.4 -37.54C-9.29 -37.1 -8.22 -36.48 -7.21 -35.67C-6.19 -34.86 -5.27 -33.89 -4.44 -32.75C-3.61 -31.62 -2.96 -30.35 -2.49 -28.95L3.49 -35.01C2.41 -36.24 1.26 -37.36 0.04 -38.36C-1.18 -39.37 -2.52 -40.23 -3.98 -40.96C-5.45 -41.68 -7.05 -42.24 -8.77 -42.63C-10.5 -43.02 -12.42 -43.21 -14.53 -43.21C-16.07 -43.21 -17.58 -43.12 -19.06 -42.93C-20.53 -42.75 -21.92 -42.45 -23.23 -42.03C-24.54 -41.61 -25.74 -41.05 -26.84 -40.36C-27.93 -39.66 -28.88 -38.81 -29.68 -37.79C-30.48 -36.78 -31.1 -35.58 -31.54 -34.2C-31.98 -32.83 -32.2 -31.25 -32.2 -29.47C-32.2 -27.99 -31.95 -26.67 -31.46 -25.53C-30.98 -24.39 -30.32 -23.38 -29.5 -22.51C-28.68 -21.65 -27.73 -20.89 -26.65 -20.26C-25.56 -19.62 -24.41 -19.06 -23.2 -18.57C-21.99 -18.09 -20.76 -17.65 -19.51 -17.27C-18.26 -16.89 -17.06 -16.53 -15.91 -16.2C-15.32 -16.03 -14.65 -15.85 -13.89 -15.69C-13.12 -15.52 -12.35 -15.34 -11.56 -15.13C-10.77 -14.93 -9.99 -14.68 -9.23 -14.38C-8.47 -14.09 -7.79 -13.74 -7.19 -13.32C-6.6 -12.9 -6.11 -12.39 -5.74 -11.81C-5.37 -11.22 -5.19 -10.52 -5.19 -9.7C-5.19 -8.62 -5.42 -7.73 -5.9 -7.02C-6.38 -6.3 -7.04 -5.73 -7.88 -5.3C-8.72 -4.87 -9.71 -4.57 -10.84 -4.38C-11.97 -4.19 -13.18 -4.1 -14.47 -4.1C-15.57 -4.1 -16.73 -4.34 -17.96 -4.8C-19.19 -5.27 -20.38 -5.92 -21.52 -6.74C-22.66 -7.56 -23.71 -8.54 -24.67 -9.68C-25.62 -10.83 -26.38 -12.07 -26.92 -13.42L-32.9 -7.35C-31.51 -5.87 -30.12 -4.61 -28.73 -3.57C-27.33 -2.54 -25.87 -1.69 -24.36 -1.04C-22.85 -0.39 -21.23 0.09 -19.51 0.4C-17.79 0.7 -15.92 0.85 -13.89 0.85C-12.34 0.85 -10.83 0.76 -9.33 0.59C-7.84 0.41 -6.42 0.12 -5.08 -0.29C-3.75 -0.7 -2.51 -1.25 -1.38 -1.93C-0.24 -2.62 0.74 -3.47 1.57 -4.48C2.4 -5.5 3.04 -6.7 3.5 -8.09C3.96 -9.47 4.19 -11.07 4.19 -12.89Z M30.59 0L30.59 -36.8L42.07 -36.8L42.07 -42.19L7.47 -42.19L7.47 -36.8L18.96 -36.8L18.96 0Z M59.65 0L59.65 -42.19L48.02 -42.19L48.02 0Z M108.05 -11.46C108.05 -13.12 107.76 -14.58 107.2 -15.86C106.63 -17.14 105.86 -18.25 104.9 -19.19C103.93 -20.13 102.81 -20.92 101.53 -21.56C100.25 -22.21 98.9 -22.72 97.47 -23.12C98.6 -23.54 99.68 -24.05 100.71 -24.62C101.73 -25.2 102.64 -25.86 103.43 -26.62C104.22 -27.37 104.85 -28.22 105.32 -29.18C105.79 -30.14 106.03 -31.2 106.03 -32.37C106.03 -33.6 105.82 -34.7 105.4 -35.65C104.98 -36.61 104.41 -37.46 103.7 -38.19C102.98 -38.92 102.15 -39.54 101.21 -40.05C100.26 -40.56 99.26 -40.97 98.22 -41.28C97.17 -41.59 96.1 -41.82 95.01 -41.97C93.92 -42.11 92.87 -42.19 91.88 -42.19L69.2 -42.19L69.2 0L94.01 0C95.09 0 96.18 -0.11 97.29 -0.34C98.41 -0.56 99.49 -0.9 100.53 -1.35C101.58 -1.8 102.55 -2.35 103.46 -3.02C104.37 -3.68 105.17 -4.44 105.85 -5.29C106.53 -6.14 107.07 -7.08 107.46 -8.12C107.85 -9.15 108.05 -10.26 108.05 -11.46ZM94.22 -31.35C94.22 -30.16 93.99 -29.13 93.53 -28.27C93.07 -27.41 92.46 -26.7 91.68 -26.15C90.91 -25.59 90.03 -25.18 89.03 -24.92C88.04 -24.65 87.01 -24.52 85.96 -24.52L80.83 -24.52L80.83 -38.2L86.95 -38.2C89.28 -38.2 91.07 -37.66 92.33 -36.56C93.59 -35.47 94.22 -33.73 94.22 -31.35ZM96.27 -12.19C96.27 -10.98 96.06 -9.87 95.65 -8.88C95.24 -7.88 94.67 -7.03 93.93 -6.33C93.18 -5.62 92.3 -5.08 91.29 -4.69C90.27 -4.3 89.17 -4.1 87.98 -4.1L80.83 -4.1L80.83 -20.39L89 -20.39C90.23 -20.39 91.3 -20.18 92.21 -19.76C93.12 -19.34 93.88 -18.76 94.48 -18.03C95.09 -17.3 95.54 -16.43 95.83 -15.42C96.12 -14.42 96.27 -13.34 96.27 -12.19Z M145.28 0L145.28 -5.36L126.62 -5.36L126.62 -42.19L114.99 -42.19L114.99 0Z M181.05 0L181.05 -5.39L162.39 -5.39L162.39 -18.4L176.81 -18.4L176.81 -23.76L162.39 -23.76L162.39 -36.8L181.05 -36.8L181.05 -42.19L150.76 -42.19L150.76 0Z"></path></g></g></svg>